<svg id="Layer_1" data-name="Layer 1" xmlns="http://www.w3.org/2000/svg" viewBox="0 0 210 210">
  <defs>
    <style>
      .cls-1 {
        fill: #0403e8;
      }
    </style>
  </defs>
  <title>03</title>
  <g>
    <path class="cls-1" d="M105,207a101.68,101.68,0,0,1-72.12-29.83h0A102.12,102.12,0,1,1,105,207ZM35.7,174.3a98,98,0,1,0,0-138.59,98.11,98.11,0,0,0,0,138.59Z"/>
    <path class="cls-1" d="M105,207a101.68,101.68,0,0,1-72.12-29.83h0A102.12,102.12,0,1,1,105,207ZM35.7,174.3a98,98,0,1,0,0-138.59,98.11,98.11,0,0,0,0,138.59Z"/>
    <g>
      <g>
        <path class="cls-1" d="M63.19,169.09l2.37.68a3,3,0,0,0,1.67,3.76c1.19.66,2.54.75,3.23-.54s-.54-2.54-1.89-3.88c-1.54-1.56-3.1-3.23-1.86-5.46s3.78-2.43,6.1-1.15c2.13,1.18,3.66,3.2,2.92,5.65l-2.25-.6A2.68,2.68,0,0,0,72,164.26c-1.13-.63-2.48-.74-3.17.5s.47,2.19,1.72,3.42c1.61,1.59,3.45,3.46,2.1,5.9s-4.09,2.4-6.41,1.11C63.63,173.76,62.38,171.46,63.19,169.09Z"/>
        <path class="cls-1" d="M92.32,170.09l-3.85,13.38L86,182.76l-3.64-12.1-2.93,10.21-2.22-.64L81,166.84l2.49.71,3.66,12,2.92-10.15Z"/>
        <path class="cls-1" d="M104.63,181.93l-6.08-.27-1.23,3-2.41-.11,5.74-13.68,2.84.13,4.5,14.13-2.4-.11Zm-.61-2-2-6.68-2.62,6.47Z"/>
        <path class="cls-1" d="M111.47,178a6.75,6.75,0,0,1,5.67-8.27,6.63,6.63,0,0,1,7,2.79l-2,1.2a4.4,4.4,0,0,0-4.6-1.85c-2.6.46-4.3,2.63-3.75,5.72s2.9,4.54,5.5,4.08a4.39,4.39,0,0,0,3.67-3.31l2.29.43a6.62,6.62,0,0,1-5.58,5A6.75,6.75,0,0,1,111.47,178Z"/>
        <path class="cls-1" d="M133,173.32l-1,.45,2.44,5.68-2.14.92-5.49-12.79,2.14-.92,2.24,5.21,1-.44,2-7,2.63-1.13-2.36,8.25,8.06,4.45-2.74,1.18Z"/>
        <path class="cls-1" d="M148.82,154.86l4,14.3-2,1.47-12.3-8.3,2-1.45,9.68,6.73-3.35-11.3Z"/>
        <path class="cls-1" d="M154.31,152l2.83,2.62,3.25-3.52,1.51,1.4-3.25,3.52,2.82,2.61,3.68-4,1.54,1.42-5.28,5.71-10.23-9.46,5.28-5.71,1.53,1.41Z"/>
        <path class="cls-1" d="M167.58,144.12l-.79,1.28,5.29,3.26-1.22,2L159,143.34l2.54-4.12c1.58-2.57,3.82-2.75,5.72-1.58a3.43,3.43,0,0,1,1.48,4.43l7.47-.11-1.44,2.34Zm-2.26.37,1.13-1.84c.9-1.46.6-2.5-.42-3.12s-2.11-.44-3,1l-1.13,1.84Z"/>
        <path class="cls-1" d="M174.19,130.77l-.38,1.07,5.83,2-.77,2.2-13.14-4.62.77-2.2,5.35,1.88.37-1-3.83-6.2.95-2.7,4.47,7.33,8.74-2.92-1,2.82Z"/>
        <path class="cls-1" d="M179.92,120.39l-.24-2.46a3,3,0,0,0,2.89-2.94c.18-1.35-.23-2.64-1.69-2.81s-2.17,1.44-2.92,3.18c-.89,2-1.87,4.07-4.4,3.74s-3.66-2.63-3.31-5.25c.32-2.42,1.64-4.59,4.19-4.79l.27,2.31a2.69,2.69,0,0,0-2.5,2.62c-.17,1.29.22,2.58,1.63,2.77s1.87-1.24,2.55-2.86c.88-2.08,1.95-4.48,4.72-4.12s3.74,2.93,3.39,5.56C184.1,118.26,182.42,120.27,179.92,120.39Z"/>
        <path class="cls-1" d="M172.77,96.74l.18,3.43,11.83-.63.12,2.32-11.83.63.18,3.44-2.08.11-.49-9.2Z"/>
        <path class="cls-1" d="M179.07,84.14l1.4,5.92,3.27.35.56,2.35L169.56,91l-.66-2.77L181.27,80l.55,2.34Zm-1.79,1.15-5.87,3.79,6.95.75Z"/>
        <path class="cls-1" d="M161.2,69.76l12.42-6.32,1.19,2.33-6.37,10.92,9.47-4.82L179,73.93l-12.42,6.32-1.18-2.31,6.3-10.9-9.41,4.79Z"/>
      </g>
      <g>
        <path class="cls-1" d="M138.65,35.76,144,38.64l2.43-2.21,2.13,1.14-11.11,9.85L135,46.08,137,31.38l2.12,1.14Zm-.33,2.1-1.06,6.91,5.17-4.7Z"/>
        <path class="cls-1" d="M124,29.34l.62-2,6.63,2L127.13,42.7,124.9,42l3.48-11.32Z"/>
        <path class="cls-1" d="M105.29,24.84l.11,11,4.78-10.67,1.46.11,3.16,11.23,1.72-10.87,2.32.17-2.12,13.8-3.24-.24-2.85-10.07-4.32,9.55-3.24-.24-.08-14Z"/>
        <path class="cls-1" d="M95.09,37.59l-.62-3.81-4.72.77-.33-2,4.72-.77L93.53,28l-5.34.87-.33-2.06,7.67-1.24,2.23,13.74L90.09,40.5l-.33-2.05Z"/>
        <path class="cls-1" d="M86.07,41.5l-4.45,1.71c-4.07,1.56-7.13-.29-8.61-4.14s-.46-7.29,3.6-8.86l4.45-1.71Zm-8.61-9.37c-2.66,1-3.25,3.23-2.16,6.06s3,4.07,5.66,3l2.18-.84-3.5-9.11Z"/>
        <path class="cls-1" d="M60,42.56l5.07-3.36L64.27,36l2-1.33L69.7,49.11l-2.37,1.57-12-8.77,2-1.33Zm1.69,1.28L67.27,48l-1.69-6.77Z"/>
        <path class="cls-1" d="M47.35,52.38l-1.46-1.5,5-4.83,9.69,10-1.68,1.62-8.24-8.5Z"/>
        <path class="cls-1" d="M50.29,64.33l-3.13-2.25L44.36,66l-1.67-1.2,2.8-3.89-3.12-2.24L39.21,63l-1.7-1.22,4.54-6.31,11.31,8.14-4.54,6.31-1.69-1.22Z"/>
        <path class="cls-1" d="M42,84.23l-12.8-5.51,1-2.4,12.47-2.08L33,70l.92-2.13,12.8,5.51-1,2.38L33.23,77.91l9.7,4.18Z"/>
        <path class="cls-1" d="M26.93,103.78l-2-.15L25.64,94l1.7.13,5.28,6a3.88,3.88,0,0,0,2.62,1.6,2,2,0,0,0,2.29-2c.1-1.31-.52-2.34-2.42-2.49l-1-.08.38-2.21.78.06c2.94.22,4.34,2.15,4.14,4.85-.19,2.53-1.79,4.31-4.31,4.12a5.39,5.39,0,0,1-3.73-2.2l-3.92-4.41Z"/>
        <path class="cls-1" d="M31.94,108.48c4.75-.54,7.31.94,7.66,4s-1.81,5.08-6.56,5.62-7.32-1-7.66-4S27.18,109,31.94,108.48Zm.84,7.4c3.54-.4,5-1.58,4.78-3.15s-1.82-2.4-5.36-2-5,1.52-4.8,3.15S29.28,116.27,32.78,115.88Z"/>
        <path class="cls-1" d="M42.58,126.72l-13.29,4.15-.67-2.14,11-3.45L35.87,123l2.24-.7,3.84,2.35Z"/>
        <path class="cls-1" d="M49.17,140.72l-1.57.85-13.79,0-1.21-2.25,13.6.15-3.39-6.29,1.78-1Z"/>
      </g>
    </g>
    <path class="cls-1" d="M134.58,112.91l-7.48,4.84-.42,8.93-8.93.42-4.84,7.48L105,130.5l-7.91,4.08-4.84-7.48-8.92-.42-.42-8.93-7.48-4.84L79.5,105l-4.08-7.91,7.48-4.84.42-8.92,8.92-.43,4.84-7.48L105,79.5l7.91-4.08,4.84,7.48,8.93.43.42,8.92,7.48,4.84L130.5,105ZM105,62.5A42.5,42.5,0,1,0,147.5,105,42.51,42.51,0,0,0,105,62.5Z"/>
  </g>
</svg>
